<?xml version="1.0" encoding="utf-8"?>
<svg xmlns="http://www.w3.org/2000/svg" xmlns:xlink="http://www.w3.org/1999/xlink" version="1.1" id="Layer_1" x="0px" y="0px" viewBox="0 0 292 64" style="enable-background:new 0 0 292 64;">
<style type="text/css">
	.st0{fill:#16132B;}
	.st1{fill:#EA4D6C;}
	.st2{fill:#55BAA1;}
	.st3{fill:#FDCD70;}
	.st4{fill:#3B519F;}
</style>
<g>
	<g>
		<path class="st0" d="M151.8,26.9h1.9v7.9h-1.9V26.9z"/>
		<path class="st0" d="M155.3,29.1h1.8v0.5c0,0.2,0,0.4,0,0.4h0c0.3-0.4,0.8-1,1.7-1c0.7,0,1.3,0.3,1.6,1h0c0.3-0.5,1-1,1.8-1&#xA;			c1,0,1.8,0.6,1.8,2.1v3.7h-1.9v-3.4c0-0.4-0.1-0.7-0.4-0.7c-0.6,0-0.9,0.4-1.1,1.1c0,0.2,0,0.4,0,0.7v2.4h-1.9v-3.4&#xA;			c0-0.4-0.1-0.7-0.4-0.7c-0.6,0-0.9,0.4-1,1c0,0.2-0.1,0.5-0.1,0.7v2.4h-1.9V29.1z"/>
		<path class="st0" d="M165.5,29.1h1.7v0.3c0,0.2,0,0.4,0,0.4h0c0,0,0.5-0.8,1.7-0.8c1.5,0,2.6,1.2,2.6,3c0,1.8-1.1,3-2.7,3&#xA;			c-0.9,0-1.4-0.5-1.4-0.5h0c0,0,0,0.2,0,0.5V37h-1.9V29.1z M168.4,33.3c0.6,0,1.1-0.5,1.1-1.4c0-0.9-0.5-1.4-1.1-1.4&#xA;			c-0.6,0-1.1,0.4-1.1,1.4C167.3,32.6,167.7,33.3,168.4,33.3z"/>
		<path class="st0" d="M172.5,29.1h1.8v1c0,0.2,0,0.4,0,0.4h0c0.2-0.8,1-1.4,1.8-1.4c0.1,0,0.2,0,0.2,0v1.9c0,0-0.2,0-0.4,0&#xA;			c-0.5,0-1.2,0.1-1.5,1c-0.1,0.2-0.1,0.5-0.1,0.8v2.2h-1.9V29.1z"/>
		<path class="st0" d="M180.1,28.9c1.8,0,3.2,1.2,3.2,3c0,1.8-1.4,3-3.2,3c-1.8,0-3.2-1.2-3.2-3C176.9,30.1,178.3,28.9,180.1,28.9z&#xA;			 M180.1,33.3c0.7,0,1.3-0.5,1.3-1.4c0-0.9-0.6-1.4-1.3-1.4c-0.7,0-1.3,0.5-1.3,1.4C178.8,32.8,179.4,33.3,180.1,33.3z"/>
		<path class="st0" d="M183.5,29.1h2l0.9,3c0.1,0.4,0.2,1,0.2,1h0c0,0,0.1-0.6,0.2-1l0.9-3h2l-1.9,5.7h-2.3L183.5,29.1z"/>
		<path class="st0" d="M190.4,29.1h1.9v5.7h-1.9V29.1z M190.4,26.9h1.9v1.5h-1.9V26.9z"/>
		<path class="st0" d="M193.7,29.1h1.8v0.5c0,0.2,0,0.4,0,0.4h0c0.3-0.4,0.8-1,1.8-1c1.2,0,2,0.5,2,2.1v3.7h-1.9v-3.3&#xA;			c0-0.5-0.2-0.8-0.6-0.8c-0.6,0-1,0.3-1.1,0.8c-0.1,0.2-0.1,0.5-0.1,0.8v2.5h-1.9V29.1z"/>
		<path class="st0" d="M203,35.5c0.7,0,1.3-0.3,1.3-1.1v-0.2c0-0.1,0-0.2,0-0.2h0c-0.3,0.4-0.8,0.6-1.4,0.6c-1.7,0-2.6-1.4-2.6-2.9&#xA;			c0-1.4,0.8-2.8,2.6-2.8c1,0,1.5,0.6,1.5,0.6h0c0,0,0-0.1,0-0.1v-0.3h1.8v5.2c0,2.1-1.7,2.8-3.2,2.8c-0.8,0-1.6-0.2-2.2-0.5&#xA;			l0.5-1.4C201.4,35.1,202.1,35.5,203,35.5z M204.4,31.8c0-1-0.5-1.2-1.1-1.2c-0.7,0-1,0.5-1,1.1c0,0.7,0.3,1.3,1.1,1.3&#xA;			C203.8,33,204.4,32.8,204.4,31.8z"/>
		<path class="st0" d="M213.1,31.2L213.1,31.2L213.1,31.2c0.1-0.6-0.3-0.7-0.8-0.7c-0.7,0-1.5,0.5-1.5,0.5l-0.7-1.3&#xA;			c0,0,1-0.7,2.4-0.7c1.6,0,2.6,0.9,2.6,2.3v3.5h-1.7v-0.3c0-0.2,0-0.4,0-0.4h0c0,0-0.4,0.8-1.6,0.8c-1.1,0-1.9-0.7-1.9-1.8&#xA;			C209.8,31.4,212.2,31.2,213.1,31.2z M212.2,33.4c0.5,0,0.9-0.5,0.9-1v-0.1H213c-0.6,0-1.3,0.2-1.3,0.7&#xA;			C211.7,33.2,211.9,33.4,212.2,33.4z"/>
		<path class="st0" d="M218.6,28.9c1.2,0,1.5,0.5,1.5,0.5h0c0,0,0-0.1,0-0.3v-2.3h1.9v7.9h-1.8v-0.4c0-0.2,0-0.3,0-0.3h0&#xA;			c0,0-0.5,0.8-1.6,0.8c-1.5,0-2.6-1.2-2.6-3C216,30.1,217.1,28.9,218.6,28.9z M219.1,33.3c0.6,0,1.1-0.4,1.1-1.4&#xA;			c0-0.7-0.4-1.4-1.1-1.4c-0.6,0-1.1,0.5-1.1,1.4C218,32.8,218.4,33.3,219.1,33.3z"/>
		<path class="st0" d="M226.3,28.9c1.8,0,3.2,1.2,3.2,3c0,1.8-1.4,3-3.2,3c-1.8,0-3.2-1.2-3.2-3C223.1,30.1,224.5,28.9,226.3,28.9z&#xA;			 M226.3,33.3c0.7,0,1.3-0.5,1.3-1.4c0-0.9-0.6-1.4-1.3-1.4c-0.7,0-1.3,0.5-1.3,1.4C225,32.8,225.6,33.3,226.3,33.3z"/>
		<path class="st0" d="M230.5,26.9h1.9v5.6c0,0.5,0.1,0.7,0.5,0.7c0.1,0,0.2,0,0.2,0v1.7c0,0-0.3,0-0.6,0c-1,0-2.1-0.2-2.1-2.2V26.9&#xA;			z"/>
		<path class="st0" d="M236.6,28.9c1.7,0,2.6,1.2,2.6,2.8c0,0.2,0,0.6,0,0.6h-3.6c0.1,0.7,0.7,1,1.3,1c0.8,0,1.6-0.6,1.6-0.6&#xA;			l0.7,1.3c0,0-0.9,0.8-2.4,0.8c-2,0-3.1-1.5-3.1-3C233.6,30.2,234.8,28.9,236.6,28.9z M237.3,31.2c0-0.4-0.3-0.8-0.8-0.8&#xA;			c-0.6,0-0.8,0.4-0.9,0.8H237.3z"/>
		<path class="st0" d="M240.7,32.8c0,0,0.6,0.6,1.4,0.6c0.3,0,0.6-0.1,0.6-0.3c0-0.5-2.7-0.6-2.7-2.4c0-1.1,1-1.7,2.3-1.7&#xA;			c1.3,0,2,0.7,2,0.7l-0.7,1.4c0,0-0.6-0.5-1.3-0.5c-0.3,0-0.6,0.1-0.6,0.3c0,0.4,2.7,0.5,2.7,2.3c0,1-0.9,1.8-2.3,1.8&#xA;			c-1.4,0-2.3-0.8-2.3-0.8L240.7,32.8z"/>
		<path class="st0" d="M248.3,28.9c1.5,0,2.3,0.9,2.3,0.9l-0.8,1.3c0,0-0.6-0.6-1.3-0.6c-0.9,0-1.4,0.7-1.4,1.4s0.5,1.4,1.4,1.4&#xA;			c0.8,0,1.6-0.7,1.6-0.7l0.7,1.3c0,0-0.9,0.9-2.4,0.9c-2,0-3.2-1.4-3.2-3C245.1,30.4,246.2,28.9,248.3,28.9z"/>
		<path class="st0" d="M254.1,28.9c1.7,0,2.6,1.2,2.6,2.8c0,0.2,0,0.6,0,0.6h-3.6c0.1,0.7,0.7,1,1.3,1c0.8,0,1.6-0.6,1.6-0.6&#xA;			l0.7,1.3c0,0-0.9,0.8-2.4,0.8c-2,0-3.1-1.5-3.1-3C251.1,30.2,252.2,28.9,254.1,28.9z M254.8,31.2c0-0.4-0.3-0.8-0.8-0.8&#xA;			c-0.6,0-0.8,0.4-0.9,0.8H254.8z"/>
		<path class="st0" d="M257.8,29.1h1.8v0.5c0,0.2,0,0.4,0,0.4h0c0.3-0.4,0.8-1,1.8-1c1.2,0,2,0.5,2,2.1v3.7h-1.9v-3.3&#xA;			c0-0.5-0.2-0.8-0.6-0.8c-0.6,0-1,0.3-1.1,0.8c-0.1,0.2-0.1,0.5-0.1,0.8v2.5h-1.9V29.1z"/>
		<path class="st0" d="M265,30.7h-0.7v-1.5h0.8v-1.6h1.9v1.6h1.2v1.5H267v1.7c0,0.6,0.7,0.7,1,0.7c0.2,0,0.3,0,0.3,0v1.7&#xA;			c0,0-0.2,0-0.5,0c-0.9,0-2.7-0.2-2.7-2.2V30.7z"/>
		<path class="st0" d="M151.6,42.3h1.8v0.5c0,0.2,0,0.4,0,0.4h0c0.3-0.4,0.8-1,1.7-1c0.7,0,1.3,0.3,1.6,1h0c0.3-0.5,1-1,1.8-1&#xA;			c1,0,1.8,0.6,1.8,2.1V48h-1.9v-3.4c0-0.4-0.1-0.7-0.4-0.7c-0.6,0-0.9,0.4-1.1,1.1c0,0.2,0,0.4,0,0.7V48H155v-3.4&#xA;			c0-0.4-0.1-0.7-0.4-0.7c-0.6,0-0.9,0.4-1,1c0,0.2-0.1,0.5-0.1,0.7V48h-1.9V42.3z"/>
		<path class="st0" d="M164.3,42.2c1.7,0,2.6,1.2,2.6,2.8c0,0.2,0,0.6,0,0.6h-3.6c0.1,0.7,0.7,1,1.3,1c0.8,0,1.6-0.6,1.6-0.6&#xA;			l0.7,1.3c0,0-0.9,0.8-2.4,0.8c-2,0-3.1-1.5-3.1-3C161.4,43.5,162.5,42.2,164.3,42.2z M165,44.5c0-0.4-0.3-0.8-0.8-0.8&#xA;			c-0.6,0-0.8,0.4-0.9,0.8H165z"/>
		<path class="st0" d="M168,42.3h1.8v0.5c0,0.2,0,0.4,0,0.4h0c0.3-0.4,0.8-1,1.8-1c1.2,0,2,0.5,2,2.1V48h-1.9v-3.3&#xA;			c0-0.5-0.2-0.8-0.6-0.8c-0.6,0-1,0.3-1.1,0.8c-0.1,0.2-0.1,0.5-0.1,0.8V48H168V42.3z"/>
		<path class="st0" d="M175.3,43.9h-0.7v-1.5h0.8v-1.6h1.9v1.6h1.2v1.5h-1.2v1.7c0,0.6,0.7,0.7,1,0.7c0.2,0,0.3,0,0.3,0v1.7&#xA;			c0,0-0.2,0-0.5,0c-0.9,0-2.7-0.2-2.7-2.2V43.9z"/>
		<path class="st0" d="M182.5,44.5L182.5,44.5L182.5,44.5c0.1-0.6-0.3-0.7-0.8-0.7c-0.7,0-1.5,0.5-1.5,0.5l-0.7-1.3&#xA;			c0,0,1-0.7,2.4-0.7c1.6,0,2.6,0.9,2.6,2.3V48h-1.7v-0.3c0-0.2,0-0.4,0-0.4h0c0,0-0.4,0.8-1.6,0.8c-1.1,0-1.9-0.7-1.9-1.8&#xA;			C179.2,44.7,181.6,44.5,182.5,44.5z M181.6,46.7c0.5,0,0.9-0.5,0.9-1v-0.1h-0.2c-0.6,0-1.3,0.2-1.3,0.7&#xA;			C181.1,46.5,181.3,46.7,181.6,46.7z"/>
		<path class="st0" d="M185.7,40.1h1.9v5.6c0,0.5,0.1,0.7,0.5,0.7c0.1,0,0.2,0,0.2,0v1.7c0,0-0.3,0-0.6,0c-1,0-2.1-0.2-2.1-2.2V40.1&#xA;			z"/>
		<path class="st0" d="M191.9,40.1h1.9v2.5c0,0.3,0,0.5,0,0.5h0c0.3-0.6,1-0.9,1.7-0.9c1.2,0,2,0.5,2,2.1V48h-1.9v-3.3&#xA;			c0-0.5-0.2-0.8-0.6-0.8c-0.6,0-1,0.3-1.1,0.8c-0.1,0.2-0.1,0.5-0.1,0.7V48h-1.9V40.1z"/>
		<path class="st0" d="M201.5,42.2c1.7,0,2.6,1.2,2.6,2.8c0,0.2,0,0.6,0,0.6h-3.6c0.1,0.7,0.7,1,1.3,1c0.8,0,1.6-0.6,1.6-0.6&#xA;			l0.7,1.3c0,0-0.9,0.8-2.4,0.8c-2,0-3.1-1.5-3.1-3C198.5,43.5,199.7,42.2,201.5,42.2z M202.2,44.5c0-0.4-0.3-0.8-0.8-0.8&#xA;			c-0.6,0-0.8,0.4-0.9,0.8H202.2z"/>
		<path class="st0" d="M208.1,44.5L208.1,44.5L208.1,44.5c0.1-0.6-0.3-0.7-0.8-0.7c-0.7,0-1.5,0.5-1.5,0.5l-0.7-1.3&#xA;			c0,0,1-0.7,2.4-0.7c1.6,0,2.6,0.9,2.6,2.3V48h-1.7v-0.3c0-0.2,0-0.4,0-0.4h0c0,0-0.4,0.8-1.6,0.8c-1.1,0-1.9-0.7-1.9-1.8&#xA;			C204.8,44.7,207.2,44.5,208.1,44.5z M207.2,46.7c0.5,0,0.9-0.5,0.9-1v-0.1H208c-0.6,0-1.3,0.2-1.3,0.7&#xA;			C206.7,46.5,206.9,46.7,207.2,46.7z"/>
		<path class="st0" d="M211.3,40.1h1.9v5.6c0,0.5,0.1,0.7,0.5,0.7c0.1,0,0.2,0,0.2,0v1.7c0,0-0.3,0-0.6,0c-1,0-2.1-0.2-2.1-2.2V40.1&#xA;			z"/>
		<path class="st0" d="M215.1,43.9h-0.7v-1.5h0.8v-1.6h1.9v1.6h1.2v1.5H217v1.7c0,0.6,0.7,0.7,1,0.7c0.2,0,0.3,0,0.3,0v1.7&#xA;			c0,0-0.2,0-0.5,0c-0.9,0-2.7-0.2-2.7-2.2V43.9z"/>
		<path class="st0" d="M219.4,40.1h1.9v2.5c0,0.3,0,0.5,0,0.5h0c0.3-0.6,1-0.9,1.7-0.9c1.2,0,2,0.5,2,2.1V48h-1.9v-3.3&#xA;			c0-0.5-0.2-0.8-0.6-0.8c-0.6,0-1,0.3-1.1,0.8c-0.1,0.2-0.1,0.5-0.1,0.7V48h-1.9V40.1z"/>
		<path class="st0" d="M229,40.1h1.9v2.2c0,0.3,0,0.5,0,0.5h0c0,0,0.5-0.6,1.5-0.6c1.5,0,2.6,1.2,2.6,3c0,1.8-1.1,3-2.7,3&#xA;			c-1.1,0-1.6-0.6-1.6-0.6h0c0,0,0,0.1,0,0.3V48H229V40.1z M232,46.6c0.6,0,1.1-0.5,1.1-1.4c0-0.9-0.5-1.4-1.1-1.4&#xA;			c-0.6,0-1.1,0.4-1.1,1.4C230.9,45.9,231.2,46.6,232,46.6z"/>
		<path class="st0" d="M235.8,48.6c0,0,0.3,0.2,0.6,0.2c0.3,0,0.7-0.1,0.9-0.6l0.1-0.3l-2.4-5.6h2.2L238,45c0.1,0.3,0.2,0.9,0.2,0.9&#xA;			h0c0,0,0.1-0.5,0.2-0.9l0.7-2.7h2.1l-2.3,6.3c-0.5,1.3-1.5,1.7-2.4,1.7c-0.8,0-1.3-0.4-1.3-0.4L235.8,48.6z"/>
		<path class="st0" d="M244.5,42.3h1.8v1c0,0.2,0,0.4,0,0.4h0c0.2-0.8,1-1.4,1.8-1.4c0.1,0,0.2,0,0.2,0v1.9c0,0-0.2,0-0.4,0&#xA;			c-0.5,0-1.2,0.1-1.5,1c-0.1,0.2-0.1,0.5-0.1,0.8V48h-1.9V42.3z"/>
		<path class="st0" d="M251.8,42.2c1.7,0,2.6,1.2,2.6,2.8c0,0.2,0,0.6,0,0.6h-3.6c0.1,0.7,0.7,1,1.3,1c0.8,0,1.6-0.6,1.6-0.6&#xA;			l0.7,1.3c0,0-0.9,0.8-2.4,0.8c-2,0-3.1-1.5-3.1-3C248.8,43.5,250,42.2,251.8,42.2z M252.5,44.5c0-0.4-0.3-0.8-0.8-0.8&#xA;			c-0.6,0-0.8,0.4-0.9,0.8H252.5z"/>
		<path class="st0" d="M257.8,42.2c1.2,0,1.5,0.5,1.5,0.5h0c0,0,0-0.1,0-0.3v-2.3h1.9V48h-1.8v-0.4c0-0.2,0-0.3,0-0.3h0&#xA;			c0,0-0.5,0.8-1.6,0.8c-1.5,0-2.6-1.2-2.6-3C255.2,43.4,256.2,42.2,257.8,42.2z M258.2,46.6c0.6,0,1.1-0.4,1.1-1.4&#xA;			c0-0.7-0.4-1.4-1.1-1.4c-0.6,0-1.1,0.5-1.1,1.4C257.1,46,257.5,46.6,258.2,46.6z"/>
		<path class="st0" d="M262.5,42.3h1.9v3.3c0,0.5,0.2,0.8,0.6,0.8c0.8,0,1.2-0.7,1.2-1.6v-2.5h1.9V48h-1.8v-0.5c0-0.2,0-0.4,0-0.4h0&#xA;			c-0.3,0.6-1,1-1.8,1c-1.1,0-2-0.5-2-2.1V42.3z"/>
		<path class="st0" d="M272.3,42.2c1.5,0,2.3,0.9,2.3,0.9l-0.8,1.3c0,0-0.6-0.6-1.3-0.6c-0.9,0-1.4,0.7-1.4,1.4s0.5,1.4,1.4,1.4&#xA;			c0.8,0,1.6-0.7,1.6-0.7l0.7,1.3c0,0-0.9,0.9-2.4,0.9c-2,0-3.2-1.4-3.2-3C269.2,43.7,270.3,42.2,272.3,42.2z"/>
		<path class="st0" d="M275.6,42.3h1.9V48h-1.9V42.3z M275.7,40.1h1.9v1.5h-1.9V40.1z"/>
		<path class="st0" d="M278.9,42.3h1.8v0.5c0,0.2,0,0.4,0,0.4h0c0.3-0.4,0.8-1,1.8-1c1.2,0,2,0.5,2,2.1V48h-1.9v-3.3&#xA;			c0-0.5-0.2-0.8-0.6-0.8c-0.6,0-1,0.3-1.1,0.8c-0.1,0.2-0.1,0.5-0.1,0.8V48h-1.9V42.3z"/>
		<path class="st0" d="M288.3,48.8c0.7,0,1.3-0.3,1.3-1.1v-0.2c0-0.1,0-0.2,0-0.2h0c-0.3,0.4-0.8,0.6-1.4,0.6&#xA;			c-1.7,0-2.6-1.4-2.6-2.9c0-1.4,0.8-2.8,2.6-2.8c1,0,1.5,0.6,1.5,0.6h0c0,0,0-0.1,0-0.1v-0.3h1.8v5.2c0,2.1-1.7,2.8-3.2,2.8&#xA;			c-0.8,0-1.6-0.2-2.2-0.5l0.5-1.4C286.7,48.4,287.4,48.8,288.3,48.8z M289.6,45c0-1-0.5-1.2-1.1-1.2c-0.7,0-1,0.5-1,1.1&#xA;			c0,0.7,0.3,1.3,1.1,1.3C289.1,46.3,289.6,46,289.6,45z"/>
		<path class="st0" d="M151.9,57.2h-0.7v-1.5h0.8v-1.6h1.9v1.6h1.2v1.5h-1.2V59c0,0.6,0.7,0.7,1,0.7c0.2,0,0.3,0,0.3,0v1.7&#xA;			c0,0-0.2,0-0.5,0c-0.9,0-2.7-0.2-2.7-2.2V57.2z"/>
		<path class="st0" d="M156.2,53.4h1.9v2.5c0,0.3,0,0.5,0,0.5h0c0.3-0.6,1-0.9,1.7-0.9c1.2,0,2,0.5,2,2.1v3.7H160V58&#xA;			c0-0.5-0.2-0.8-0.6-0.8c-0.6,0-1,0.3-1.1,0.8c-0.1,0.2-0.1,0.5-0.1,0.7v2.5h-1.9V53.4z"/>
		<path class="st0" d="M165.8,55.5c1.7,0,2.6,1.2,2.6,2.8c0,0.2,0,0.6,0,0.6h-3.6c0.1,0.7,0.7,1,1.3,1c0.8,0,1.6-0.6,1.6-0.6&#xA;			l0.7,1.3c0,0-0.9,0.8-2.4,0.8c-2,0-3.1-1.5-3.1-3C162.8,56.8,164,55.5,165.8,55.5z M166.5,57.7c0-0.4-0.3-0.8-0.8-0.8&#xA;			c-0.6,0-0.8,0.4-0.9,0.8H166.5z"/>
		<path class="st0" d="M172,55.6h1.9v5.7H172V55.6z M172,53.4h1.9v1.5H172V53.4z"/>
		<path class="st0" d="M175.3,55.6h1.8v0.5c0,0.2,0,0.4,0,0.4h0c0.3-0.4,0.8-1,1.7-1c0.7,0,1.3,0.3,1.6,1h0c0.3-0.5,1-1,1.8-1&#xA;			c1,0,1.8,0.6,1.8,2.1v3.7h-1.9v-3.4c0-0.4-0.1-0.7-0.4-0.7c-0.6,0-0.9,0.4-1.1,1.1c0,0.2,0,0.4,0,0.7v2.4h-1.9v-3.4&#xA;			c0-0.4-0.1-0.7-0.4-0.7c-0.6,0-0.9,0.4-1,1c0,0.2-0.1,0.5-0.1,0.7v2.4h-1.9V55.6z"/>
		<path class="st0" d="M185.4,55.6h1.7v0.3c0,0.2,0,0.4,0,0.4h0c0,0,0.5-0.8,1.7-0.8c1.5,0,2.6,1.2,2.6,3c0,1.8-1.1,3-2.7,3&#xA;			c-0.9,0-1.4-0.5-1.4-0.5h0c0,0,0,0.2,0,0.5v2.1h-1.9V55.6z M188.4,59.9c0.6,0,1.1-0.5,1.1-1.4c0-0.9-0.5-1.4-1.1-1.4&#xA;			c-0.6,0-1.1,0.4-1.1,1.4C187.3,59.2,187.7,59.9,188.4,59.9z"/>
		<path class="st0" d="M195.4,57.8L195.4,57.8L195.4,57.8c0.1-0.6-0.3-0.7-0.8-0.7c-0.7,0-1.5,0.5-1.5,0.5l-0.7-1.3&#xA;			c0,0,1-0.7,2.4-0.7c1.6,0,2.6,0.9,2.6,2.3v3.5h-1.7V61c0-0.2,0-0.4,0-0.4h0c0,0-0.4,0.8-1.6,0.8c-1.1,0-1.9-0.7-1.9-1.8&#xA;			C192.1,57.9,194.5,57.8,195.4,57.8z M194.5,60c0.5,0,0.9-0.5,0.9-1v-0.1h-0.2c-0.6,0-1.3,0.2-1.3,0.7C194,59.8,194.1,60,194.5,60z"/>
		<path class="st0" d="M201.4,55.5c1.5,0,2.3,0.9,2.3,0.9l-0.8,1.3c0,0-0.6-0.6-1.3-0.6c-0.9,0-1.4,0.7-1.4,1.4s0.5,1.4,1.4,1.4&#xA;			c0.8,0,1.6-0.7,1.6-0.7l0.7,1.3c0,0-0.9,0.9-2.4,0.9c-2,0-3.2-1.4-3.2-3C198.3,56.9,199.4,55.5,201.4,55.5z"/>
		<path class="st0" d="M205.1,57.2h-0.7v-1.5h0.8v-1.6h1.9v1.6h1.2v1.5H207V59c0,0.6,0.7,0.7,1,0.7c0.2,0,0.3,0,0.3,0v1.7&#xA;			c0,0-0.2,0-0.5,0c-0.9,0-2.7-0.2-2.7-2.2V57.2z"/>
		<path class="st0" d="M214.7,55.5c1.8,0,3.2,1.2,3.2,3c0,1.8-1.4,3-3.2,3c-1.8,0-3.2-1.2-3.2-3C211.5,56.7,212.9,55.5,214.7,55.5z&#xA;			 M214.7,59.8c0.7,0,1.3-0.5,1.3-1.4c0-0.9-0.6-1.4-1.3-1.4c-0.7,0-1.3,0.5-1.3,1.4C213.4,59.3,214,59.8,214.7,59.8z"/>
		<path class="st0" d="M219.2,57.2h-0.7v-1.5h0.7v-0.2c0-1.9,1.7-2.1,2.6-2.1c0.3,0,0.6,0,0.6,0V55c0,0-0.1,0-0.3,0&#xA;			c-0.4,0-1,0.1-1,0.6v0.2h1.1v1.5h-1.1v4.1h-1.9V57.2z"/>
		<path class="st0" d="M225.6,55.6h1.7v0.3c0,0.2,0,0.4,0,0.4h0c0,0,0.5-0.8,1.7-0.8c1.5,0,2.6,1.2,2.6,3c0,1.8-1.1,3-2.7,3&#xA;			c-0.9,0-1.4-0.5-1.4-0.5h0c0,0,0,0.2,0,0.5v2.1h-1.9V55.6z M228.6,59.9c0.6,0,1.1-0.5,1.1-1.4c0-0.9-0.5-1.4-1.1-1.4&#xA;			c-0.6,0-1.1,0.4-1.1,1.4C227.5,59.2,227.9,59.9,228.6,59.9z"/>
		<path class="st0" d="M235.5,55.5c1.8,0,3.2,1.2,3.2,3c0,1.8-1.4,3-3.2,3c-1.8,0-3.2-1.2-3.2-3C232.3,56.7,233.7,55.5,235.5,55.5z&#xA;			 M235.5,59.8c0.7,0,1.3-0.5,1.3-1.4c0-0.9-0.6-1.4-1.3-1.4c-0.7,0-1.3,0.5-1.3,1.4C234.2,59.3,234.8,59.8,235.5,59.8z"/>
		<path class="st0" d="M238.9,55.6h2l0.9,3c0.1,0.4,0.2,1,0.2,1h0c0,0,0.1-0.6,0.2-1l0.9-3h2l-1.9,5.7h-2.3L238.9,55.6z"/>
		<path class="st0" d="M248.2,55.5c1.7,0,2.6,1.2,2.6,2.8c0,0.2,0,0.6,0,0.6h-3.6c0.1,0.7,0.7,1,1.3,1c0.8,0,1.6-0.6,1.6-0.6&#xA;			l0.7,1.3c0,0-0.9,0.8-2.4,0.8c-2,0-3.1-1.5-3.1-3C245.3,56.8,246.4,55.5,248.2,55.5z M248.9,57.7c0-0.4-0.3-0.8-0.8-0.8&#xA;			c-0.6,0-0.8,0.4-0.9,0.8H248.9z"/>
		<path class="st0" d="M251.9,55.6h1.8v1c0,0.2,0,0.4,0,0.4h0c0.2-0.8,1-1.4,1.8-1.4c0.1,0,0.2,0,0.2,0v1.9c0,0-0.2,0-0.4,0&#xA;			c-0.5,0-1.2,0.1-1.5,1c-0.1,0.2-0.1,0.5-0.1,0.8v2.2h-1.9V55.6z"/>
		<path class="st0" d="M257.1,57.2h-0.7v-1.5h0.8v-1.6h1.9v1.6h1.2v1.5H259V59c0,0.6,0.7,0.7,1,0.7c0.2,0,0.3,0,0.3,0v1.7&#xA;			c0,0-0.2,0-0.5,0c-0.9,0-2.7-0.2-2.7-2.2V57.2z"/>
		<path class="st0" d="M261.4,61.8c0,0,0.3,0.2,0.6,0.2c0.3,0,0.7-0.1,0.9-0.6l0.1-0.3l-2.4-5.6h2.2l0.8,2.6&#xA;			c0.1,0.3,0.2,0.9,0.2,0.9h0c0,0,0.1-0.5,0.2-0.9l0.7-2.7h2.1l-2.3,6.3c-0.5,1.3-1.5,1.7-2.4,1.7c-0.8,0-1.3-0.4-1.3-0.4&#xA;			L261.4,61.8z"/>
	</g>
	<g>
		<path class="st0" d="M11.7,41.6c-1.8,4.9-2.8,11.3-3.3,15.7c-0.3,2.5-1.7,3.9-4.1,3.9c-3.6,0-4.3-2.1-4.3-5.3&#xA;			c0-2.1,1.1-14.1,9.9-30.5c3.8-7.2,5.9-10.6,10.6-10.6c3.9,0,6.1,3.4,9.9,10.6C39.2,41.9,41,53.9,41,55.9c0,3.5-1.7,5.3-4,5.3&#xA;			c-3.3,0-4.1-1.9-4.8-5.5c-1.7-9.6-11.3-14.1-18.7-14.1H11.7z M14.6,35c3.3,0,9,0.9,13.4,4.5l0.1-0.1c-2-5.7-4.5-11.3-7.8-16.5&#xA;			c-2.7,4-4.9,8-6.6,12.1H14.6z"/>
		<path class="st0" d="M53.4,56.9c0,2.4-1.3,4.3-4,4.3c-2.7,0-4-1.9-4-4.3V18c0-2.4,1.3-4.3,4-4.3c2.7,0,4,1.9,4,4.3V56.9z"/>
		<path class="st0" d="M68.5,56.9c0,2.4-1.3,4.3-4,4.3c-2.7,0-4-1.9-4-4.3V31.2c0-2.4,1.3-4.3,4-4.3c2.7,0,4,1.9,4,4.3V56.9z"/>
		<path class="st0" d="M99.6,26.8c-2.9,0-3.6,2-4.2,6.3c-1,6.7-2.9,14.7-6.5,19.8c-3-4.4-4.9-10.9-6-17c-0.6-4.3-1.1-8.4-1.3-11.1&#xA;			c-0.3-4.3-0.8-6.4-3.7-6.6c-2.6-0.2-3.9,1-4.1,3.4c-0.2,3,0.1,7.5,0.9,12.4c0.8,7.4,4.1,16.6,9,24.5c1.4,2.3,3.4,3,5.3,3&#xA;			c1.9,0,3.9-0.7,5.3-3c5.7-9.2,9.2-20.2,9.2-28C103.4,28.2,102.1,26.8,99.6,26.8z"/>
		<path class="st0" d="M124.5,61.1c-11.9,0-18.5-6.5-18.5-16.5c0-10,6.5-17.8,16.7-17.8c11.1,0,15.7,7.4,15.7,15.2&#xA;			c0,2.3-0.5,3.9-3.3,3.9h-20.4c0.5,6.3,5.3,7.9,10.9,7.9h8.6c2.1,0,3.9,1.1,3.9,3.6c0,2.5-1.7,3.6-3.9,3.6H124.5z M130,40&#xA;			c-0.9-4-4.2-6.5-7.3-6.5c-3.1,0-6.5,2.5-7.4,6.5H130z"/>
		<path class="st1" d="M53.9,5.3c0,3.2-1.9,4.9-4.4,4.9c-2.5,0-4.4-1.7-4.4-4.9c0-3.2,1.9-4.9,4.4-4.9C51.9,0.4,53.9,2.1,53.9,5.3z"/>
		<path class="st2" d="M104.3,18.6c0,3.2-1.9,4.9-4.4,4.9c-2.5,0-4.4-1.7-4.4-4.9c0-3.2,1.9-4.9,4.4-4.9&#xA;			C102.4,13.6,104.3,15.4,104.3,18.6z"/>
		<path class="st3" d="M81.7,9.8c0,3.2-1.9,4.9-4.4,4.9c-2.5,0-4.4-1.7-4.4-4.9c0-3.2,1.9-4.9,4.4-4.9C79.8,4.9,81.7,6.6,81.7,9.8z"/>
		<path class="st4" d="M68.9,18.4c0,3.2-1.9,4.9-4.4,4.9c-2.5,0-4.4-1.7-4.4-4.9c0-3.2,1.9-4.9,4.4-4.9C67,13.5,68.9,15.2,68.9,18.4&#xA;			z"/>
	</g>
</g>
</svg>